<svg xmlns="http://www.w3.org/2000/svg" width="28" height="28" fill="none" viewBox="0 0 28 28">
  <path fill="#E296E1" fill-rule="evenodd" d="m9.21 18.687 2.567-.744 2.216 4.053c.003.005.01.005.014 0l2.216-4.053 2.567.744a.008.008 0 0 0 .01-.01l-.745-2.515 3.941-2.155a.008.008 0 0 0 0-.014l-3.974-2.173.777-2.625a.008.008 0 0 0-.01-.01l-2.626.762-2.156-3.943a.008.008 0 0 0-.014 0l-2.156 3.943-2.627-.762a.008.008 0 0 0-.01.01l.778 2.625-3.974 2.173a.008.008 0 0 0 0 .014l3.941 2.155-.744 2.516a.008.008 0 0 0 .01.01Zm1.992-4.66 1.818.995.994 1.818c.003.005.01.005.014 0l.994-1.818 1.818-.994a.008.008 0 0 0 0-.014l-1.818-.994-.994-1.818a.008.008 0 0 0-.014 0l-.994 1.818-1.818.994a.008.008 0 0 0 0 .014Z" clip-rule="evenodd"/>
</svg>
