<svg xmlns="http://www.w3.org/2000/svg" width="28" height="28" fill="none" viewBox="0 0 28 28">
  <path fill="#C44D61" fill-rule="evenodd" d="M8.626 7.33a1.766 1.766 0 0 1 3.189-.53h.516a1.765 1.765 0 0 1 2.886.533h.432a1.765 1.765 0 0 1 2.555.8h1.174c.01 0 .02.003.028.008a1.765 1.765 0 0 1 1.928 1.757v5.388l-.003.097C21.224 19.053 17.923 22 13.867 22 9.743 22 6.4 18.956 6.4 15.2c0-1.813.779-3.46 2.049-4.679-.004 1.767.026 3.594.164 3.563.368-.084.08-5.558.013-6.754Z" clip-rule="evenodd"/>
</svg>
