<svg xmlns="http://www.w3.org/2000/svg" width="28" height="28" fill="none" viewBox="0 0 28 28">
  <path fill="#F66D6D" fill-rule="evenodd" d="M17.334 19.1c.223-.813-.21-2.484-.21-2.484s-.312 1.361-.802 1.865c-.417.43-.928.727-1.662.805a1.782 1.782 0 0 0 1.012-1.6c0-.985-.812-1.784-1.815-1.784-1.002 0-1.814.799-1.814 1.784 0 .269.06.524.169.753-.627-.5-.726-1.3-.726-1.3s-.7 2.906 1.23 4.273c1.928 1.367 5.707.192 5.707.192s-5.408 3.805-9.415-.336c-3.451-3.567-.9-8.263-.9-8.263s-.11.435-.11.941.273.89.273.89.818-1.723 1.455-2.425c.602-.663 1.357-1.201 2.01-1.666.502-.358.943-.672 1.207-.967 1.45-1.622.56-4.578.56-4.578s1.637 1.442 2.093 3.305c.175.71.063 1.517-.038 2.24-.162 1.172-.294 2.12.88 2.058 1.899-.099.25-3.025.25-3.025s4.304 2.263 3.983 6.22c-.322 3.957-4.706 4.857-4.706 4.857s1.147-.941 1.37-1.755Z" clip-rule="evenodd"/>
</svg>
