<svg xmlns="http://www.w3.org/2000/svg" width="28" height="28" fill="none" viewBox="0 0 28 28">
  <path fill="#8BCEC1" fill-rule="evenodd" d="m18.671 6.02.058 5.074-4.425 2.125-.055-4.79 4.422-2.408Zm4.436 7.996-4.38 2.505-4.384-2.51 4.381-2.3 4.383 2.305Zm-9.543 0-4.38 2.505-4.384-2.51 4.381-2.3 4.383 2.305ZM9.134 6l4.547 2.252-.116 4.907-4.293-2.126L9.134 6Zm9.661 15.954-4.547-2.252.116-4.907 4.293 2.126.138 5.033ZM9.291 22l-.058-5.074 4.426-2.124.054 4.79L9.291 22Z" clip-rule="evenodd"/>
</svg>
